<svg width="13.592773" height="14.266602" viewBox="0 0 13.5928 14.2666" fill="none" xmlns="http://www.w3.org/2000/svg" xmlns:xlink="http://www.w3.org/1999/xlink">
	<desc>
			Created with Pixso.
	</desc>
	<defs/>
	<path id="Vector" d="M10.06 1.44L1.78 3.66C1.52 3.73 1.37 3.99 1.44 4.24L2.8 9.3C3.48 11.84 6.09 13.35 8.63 12.67C11.17 11.99 12.68 9.38 12 6.84L10.64 1.78C10.57 1.52 10.31 1.37 10.06 1.44ZM1.41 2.28C0.39 2.55 -0.21 3.6 0.06 4.61L1.42 9.67C2.3 12.97 5.7 14.93 9 14.05C12.3 13.16 14.26 9.77 13.37 6.47L12.02 1.41C11.75 0.39 10.7 -0.21 9.69 0.06L1.41 2.28Z" fill="#FFAD43" fill-opacity="1.000000" fill-rule="evenodd"/>
</svg>
