<svg width="41.000000" height="41.000000" viewBox="0 0 41 41" fill="none" xmlns="http://www.w3.org/2000/svg" xmlns:xlink="http://www.w3.org/1999/xlink">
	<desc>
			Created with Pixso.
	</desc>
	<defs/>
	<path id="Vector" d="M20.5 0C22.38 0 23.91 1.52 23.91 3.41L23.91 17.08L37.58 17.08C39.47 17.08 41 18.61 41 20.5C41 22.38 39.47 23.91 37.58 23.91L23.91 23.91L23.91 37.58C23.91 39.47 22.38 41 20.5 41C18.61 41 17.08 39.47 17.08 37.58L17.08 23.91L3.41 23.91C1.52 23.91 0 22.38 0 20.5C0 18.61 1.52 17.08 3.41 17.08L17.08 17.08L17.08 3.41C17.08 1.52 18.61 0 20.5 0Z" fill="#008294" fill-opacity="1.000000" fill-rule="nonzero"/>
</svg>
